<svg width="23" height="23" viewBox="0 0 23 23" fill="none" xmlns="http://www.w3.org/2000/svg">
<path d="M10.1086 13.0521C10.1316 13.0802 10.1582 13.1051 10.1875 13.127C11.3275 14.1908 12.8561 14.8427 14.5345 14.8427C16.1914 14.8427 17.7027 14.2075 18.8378 13.1677C18.9005 13.1318 18.9533 13.0812 18.9921 13.0212C20.1757 11.8629 20.9117 10.2486 20.9117 8.46573C20.9117 4.94928 18.0508 2.08859 14.5345 2.08859C11.0181 2.08859 8.15739 4.94928 8.15739 8.46573C8.15739 10.2646 8.90635 11.8916 10.1086 13.0521ZM10.9354 12.5929C11.1646 11.4135 12.1964 10.5496 13.4215 10.5496H14.0853V12.247C14.0853 12.4949 14.2864 12.6962 14.5345 12.6962C14.7825 12.6962 14.9838 12.4949 14.9838 12.247V10.5496H15.6474C16.874 10.5496 17.9046 11.4129 18.1336 12.5927C17.1703 13.4339 15.9108 13.9444 14.5345 13.9444C13.1581 13.9442 11.8988 13.4339 10.9354 12.5929ZM13.1788 7.96228H13.612C14.2034 7.96228 14.7665 7.74925 15.2056 7.36793L15.8901 7.77013V8.29534C15.8901 9.04289 15.2819 9.6511 14.5345 9.6511C13.787 9.6511 13.1788 9.04289 13.1788 8.29534V7.96228ZM15.8901 6.72812L15.3595 6.41647C15.1703 6.30522 14.9287 6.34698 14.7876 6.51527C14.4954 6.86395 14.0671 7.06382 13.612 7.06382H13.1788V6.63407C13.1788 5.88652 13.787 5.27848 14.5345 5.27848C15.2819 5.27848 15.8901 5.88652 15.8901 6.63407V6.72812ZM14.5345 2.98705C17.5554 2.98705 20.0132 5.44466 20.0132 8.46573C20.0132 9.73709 19.5777 10.9088 18.8482 11.8393C18.4246 10.7403 17.4593 9.92924 16.2874 9.71024C16.6006 9.32296 16.7886 8.83073 16.7886 8.29534V6.63407C16.7886 5.39114 15.7775 4.37984 14.5345 4.37984C13.2916 4.37984 12.2803 5.39114 12.2803 6.63407V8.29534C12.2803 8.83091 12.4684 9.32313 12.7815 9.71024C11.6109 9.92977 10.6448 10.7412 10.221 11.8397C9.4914 10.909 9.05586 9.73727 9.05586 8.46573C9.05586 5.44466 11.5135 2.98705 14.5345 2.98705Z" fill="#F05A28"/>
<path d="M14.4678 17.0649C16.747 17.0649 18.8897 16.1773 20.5014 14.5657C22.113 12.9541 23.0005 10.8113 23.0005 8.53218C23.0005 6.25304 22.113 4.11025 20.5014 2.49864C19.1252 1.1227 17.3038 0.252141 15.3724 0.0473553C13.4692 -0.154447 11.5348 0.293028 9.92481 1.30748C9.71494 1.43962 9.65194 1.71705 9.78408 1.92692C9.91639 2.1368 10.1938 2.19997 10.4037 2.06766C13.4365 0.156855 17.3274 0.59538 19.8659 3.13405C21.3079 4.57597 22.1021 6.4931 22.1021 8.53218C22.1021 10.5714 21.3079 12.4886 19.8659 13.9305C18.4242 15.3724 16.5071 16.1664 14.4678 16.1664C12.4286 16.1664 10.5114 15.3724 9.0697 13.9305C6.53102 11.392 6.0925 7.50088 8.00313 4.46823C8.13544 4.25818 8.07244 3.98092 7.86257 3.84861C7.65252 3.7163 7.37526 3.77929 7.24295 3.98917C6.22867 5.5992 5.7812 7.53387 5.983 9.43678C6.10584 10.5964 6.46908 11.7161 7.03729 12.7237L5.20703 14.554L0.670861 19.0905C0.238302 19.523 0 20.0981 0 20.7098C0 21.3215 0.238302 21.8968 0.670861 22.3293C1.10342 22.7619 1.67847 23 2.29037 23C2.90209 23 3.47714 22.7619 3.9097 22.3293L8.44604 17.793C8.44604 17.793 8.44604 17.7928 8.44622 17.7928L10.2724 15.9666C11.5382 16.6834 12.9736 17.0649 14.4678 17.0649ZM3.27446 21.6939C3.01142 21.9568 2.66204 22.1015 2.29019 22.1015C1.91853 22.1015 1.56897 21.9568 1.3061 21.6939C0.763515 21.1513 0.763515 20.2683 1.3061 19.7257L5.52482 15.507L7.49301 17.4754L3.27446 21.6939ZM8.12842 16.8399L6.16006 14.8718L7.53179 13.5C7.80203 13.8778 8.10333 14.2348 8.43428 14.5657C8.76735 14.8988 9.12339 15.2003 9.49822 15.4701L8.12842 16.8399Z" fill="#F05A28"/>
<path d="M8.75211 3.26575C8.86705 3.26575 8.98199 3.22206 9.06973 3.13432C9.24521 2.95884 9.24521 2.67438 9.06973 2.4989V2.49873C8.89425 2.32342 8.60979 2.32342 8.43431 2.49873C8.25901 2.67421 8.25901 2.95884 8.43449 3.13414C8.52223 3.22206 8.63717 3.26575 8.75211 3.26575Z" fill="#F05A28"/>
</svg>
