<svg width="26" height="23" viewBox="0 0 26 23" fill="none" xmlns="http://www.w3.org/2000/svg">
<path d="M3.85845 12.8907C4.17099 12.8907 4.42435 13.1542 4.42435 13.4791V21.8233H9.15739V13.7198C9.15739 13.3949 9.41075 13.1314 9.7233 13.1314H11.0285C11.3534 13.1314 11.6169 13.3949 11.6169 13.7198C11.6169 14.0448 11.3534 14.3082 11.0285 14.3082H10.2892V22.4117C10.2892 22.7366 10.0358 23 9.7233 23H3.85845C3.54591 23 3.29254 22.7366 3.29254 22.4117V13.4791C3.29254 13.1542 3.54591 12.8907 3.85845 12.8907Z" fill="#626262"/>
<path d="M15.6396 13.1314C15.9521 13.1314 16.2055 13.3949 16.2055 13.7198V21.8233H20.7842V13.4791C20.7842 13.1542 21.0376 12.8907 21.3501 12.8907C21.6626 12.8907 21.916 13.1542 21.916 13.4791V22.4117C21.916 22.7366 21.6626 23 21.3501 23H15.6396C15.327 23 15.0737 22.7366 15.0737 22.4117V14.3082H14.1864C13.8615 14.3082 13.598 14.0448 13.598 13.7198C13.598 13.3949 13.8615 13.1314 14.1864 13.1314H15.6396Z" fill="#626262"/>
<path d="M12.6466 13.2484C12.5179 13.2484 12.3916 13.2985 12.3006 13.3856C12.2096 13.4726 12.1572 13.5935 12.1572 13.7166C12.1572 13.8396 12.2096 13.9605 12.3006 14.0475C12.3916 14.1346 12.5179 14.1847 12.6466 14.1847C12.7753 14.1847 12.9016 14.1346 12.9926 14.0475C13.0836 13.9605 13.136 13.8396 13.136 13.7166C13.136 13.5935 13.0836 13.4726 12.9926 13.3856C12.9016 13.2985 12.7753 13.2484 12.6466 13.2484Z" fill="#626262"/>
<path fill-rule="evenodd" clip-rule="evenodd" d="M12.2298 0.17233C12.4508 -0.0574434 12.8092 -0.0574434 13.0302 0.17233L25.0942 12.7153C25.3153 12.9451 25.3153 13.3177 25.0942 13.5474C24.8733 13.7772 24.5149 13.7772 24.2939 13.5474L12.63 1.42045L0.966063 13.5474C0.745062 13.7772 0.38675 13.7772 0.16575 13.5474C-0.0552501 13.3177 -0.0552501 12.9451 0.16575 12.7153L12.2298 0.17233Z" fill="#626262"/>
</svg>
