<svg width="23" height="23" viewBox="0 0 23 23" fill="none" xmlns="http://www.w3.org/2000/svg">
<path d="M1.81758 14.0758C1.90532 14.1635 2.02025 14.2074 2.13519 14.2074C2.25013 14.2074 2.36506 14.1635 2.4528 14.0758L9.25214 7.27663L13.3685 11.3931C13.4527 11.4773 13.5671 11.5247 13.6861 11.5247C13.8052 11.5247 13.9194 11.4773 14.0039 11.3931L16.3914 9.00542C16.5669 8.83012 16.5669 8.54567 16.3914 8.37019C16.2159 8.19472 15.9316 8.19472 15.7562 8.37019L13.6861 10.4401L9.56975 6.32362C9.48535 6.23939 9.37111 6.19201 9.25214 6.19201C9.13299 6.19201 9.01876 6.23939 8.93435 6.32362L2.13519 13.123L1.08444 12.0722L9.25214 3.90468L13.3686 8.02117C13.4529 8.1054 13.5671 8.15278 13.6862 8.15278C13.8054 8.15278 13.9196 8.1054 14.0039 8.02117L19.4289 2.59598C19.6043 2.42068 19.6043 2.13624 19.4289 1.96076L19.2634 1.79511L21.9154 1.08461L21.2049 3.73658L21.1148 3.64673C21.0306 3.5625 20.9164 3.51513 20.7972 3.51513C20.6781 3.51513 20.5638 3.5625 20.4796 3.64673L18.2974 5.82895C18.1219 6.00443 18.1219 6.28887 18.2974 6.46435C18.4729 6.63965 18.7571 6.63965 18.9328 6.46435L20.7974 4.59974L21.1197 4.92209C21.2333 5.03545 21.3986 5.08002 21.5537 5.03843C21.7086 4.99684 21.8297 4.87577 21.8713 4.72082L22.9847 0.565552C23.0263 0.410431 22.9819 0.245133 22.8684 0.1316C22.755 0.0180671 22.5895 -0.0261528 22.4346 0.0152595L18.2793 1.12865C18.1244 1.17024 18.0033 1.29132 17.9617 1.44644C17.9201 1.60139 17.9645 1.76686 18.0779 1.88022L18.476 2.27837L13.6862 7.06816L9.56975 2.95167C9.39445 2.77637 9.11001 2.7762 8.93453 2.95167L0.131607 11.7546C-0.043869 11.9301 -0.043869 12.2145 0.131607 12.39L1.81758 14.0758Z" fill="#626262"/>
<path d="M22.5508 22.1016H22.1015V8.52026C22.1015 8.27214 21.9004 8.07104 21.6523 8.07104H19.1367C18.8886 8.07104 18.6875 8.27214 18.6875 8.52026V22.1016H17.6543V13.8809C17.6543 13.6329 17.4532 13.4317 17.2051 13.4317H14.6894C14.4413 13.4317 14.2402 13.6329 14.2402 13.8809V22.1016H13.207V16.2617C13.207 16.0138 13.0059 15.8125 12.7578 15.8125H10.2422C9.99405 15.8125 9.79296 16.0138 9.79296 16.2617V22.1016H8.75976V13.8809C8.75976 13.6329 8.55866 13.4317 8.31054 13.4317H5.79492C5.54679 13.4317 5.3457 13.6329 5.3457 13.8809V22.1016H4.3125V17.9837C4.3125 17.7357 4.1114 17.5345 3.86328 17.5345H1.34765C1.09953 17.5345 0.898437 17.7357 0.898437 17.9837V22.1016H0.449218C0.201095 22.1016 0 22.3028 0 22.5508C0 22.7989 0.201095 23 0.449218 23H22.5508C22.7989 23 23 22.7989 23 22.5508C23 22.3028 22.7989 22.1016 22.5508 22.1016ZM1.79687 22.1016V18.4329H3.41406V22.1016H1.79687ZM6.24413 22.1016V14.3301H7.86132V22.1016H6.24413ZM10.6914 22.1016V16.711H12.3086V22.1016H10.6914ZM15.1387 22.1016V14.3301H16.7558V22.1016H15.1387ZM19.5859 22.1016V8.96948H21.2031V22.1016H19.5859Z" fill="#626262"/>
<path d="M17.0268 7.09941C16.9433 7.18294 16.8952 7.29893 16.8952 7.41702C16.8952 7.53565 16.9433 7.65111 17.0268 7.73464C17.1104 7.81869 17.2262 7.86624 17.3444 7.86624C17.4625 7.86624 17.5783 7.81869 17.662 7.73464C17.7459 7.65111 17.7937 7.53529 17.7937 7.41702C17.7937 7.29893 17.7459 7.18346 17.662 7.09941C17.5783 7.01588 17.4625 6.9678 17.3444 6.9678C17.2262 6.9678 17.1104 7.01588 17.0268 7.09941Z" fill="#626262"/>
</svg>
