<svg width="22" height="23" viewBox="0 0 22 23" fill="none" xmlns="http://www.w3.org/2000/svg">
<path d="M21.0234 10.6016C21.0234 9.85842 20.4189 9.25391 19.6758 9.25391H18.5977C17.8545 9.25391 17.25 9.85842 17.25 10.6016C17.25 11.3447 17.8545 11.9492 18.5977 11.9492H18.665V12.9824C18.665 13.5478 18.2085 14.0084 17.6446 14.0153C17.4564 13.2477 16.7973 12.6634 15.9922 12.5869V3.97559C15.9922 1.78336 14.2088 0 12.0166 0H9.00684C6.81461 0 5.03125 1.78336 5.03125 3.97559V12.5869C4.22617 12.6634 3.56708 13.2477 3.37879 14.0153C2.81499 14.0084 2.3584 13.5478 2.3584 12.9824V11.9492H2.42578C3.16892 11.9492 3.77344 11.3447 3.77344 10.6016C3.77344 9.85842 3.16892 9.25391 2.42578 9.25391H1.34766C0.604515 9.25391 0 9.85842 0 10.6016C0 11.3447 0.604515 11.9492 1.34766 11.9492H1.45996V12.9824C1.45996 14.0432 2.31944 14.9067 3.37862 14.9137C3.58059 15.7381 4.32531 16.3516 5.21094 16.3516H9.16406V18.1484H7.22488C6.16237 18.1484 5.2885 18.9697 5.20339 20.0108C4.57589 20.2006 4.11772 20.7841 4.11772 21.4727C4.11772 22.3148 4.80296 23 5.64507 23C6.48735 23 7.17241 22.3148 7.17241 21.4727C7.17241 20.7911 6.72372 20.2124 6.10604 20.0166C6.18448 19.4691 6.65616 19.0469 7.22488 19.0469H10.0625V20.0129C9.43886 20.2052 8.98438 20.7867 8.98438 21.4727C8.98438 22.3148 9.66961 23 10.5117 23C11.3538 23 12.0391 22.3148 12.0391 21.4727C12.0391 20.7867 11.5846 20.205 10.9609 20.0129V19.0469H13.81C14.3775 19.0469 14.8484 19.4673 14.9283 20.013C14.305 20.2055 13.8509 20.7869 13.8509 21.4727C13.8509 22.3148 14.5361 23 15.3782 23C16.2205 23 16.9055 22.3148 16.9055 21.4727C16.9055 20.7883 16.4532 20.2076 15.8318 20.0141C15.7481 18.9714 14.8737 18.1484 13.81 18.1484H11.8594V16.3516H15.8125C16.6981 16.3516 17.4428 15.7381 17.6448 14.9137C18.704 14.9067 19.5635 14.0432 19.5635 12.9824V11.9492H19.6758C20.4189 11.9492 21.0234 11.3447 21.0234 10.6016ZM0.898438 10.6016C0.898438 10.3538 1.09988 10.1523 1.34766 10.1523H2.42578C2.67355 10.1523 2.875 10.3538 2.875 10.6016C2.875 10.8493 2.67355 11.0508 2.42578 11.0508H1.34766C1.09988 11.0508 0.898438 10.8493 0.898438 10.6016ZM5.64524 22.1016C5.29832 22.1016 5.01633 21.8194 5.01633 21.4727C5.01633 21.1259 5.29832 20.8438 5.64524 20.8438C5.99198 20.8438 6.27415 21.1259 6.27415 21.4727C6.27415 21.8194 5.99198 22.1016 5.64524 22.1016ZM15.3782 22.1016C15.0315 22.1016 14.7493 21.8194 14.7493 21.4727C14.7493 21.1259 15.0315 20.8438 15.3782 20.8438C15.7251 20.8438 16.0071 21.1259 16.0071 21.4727C16.0071 21.8194 15.7251 22.1016 15.3782 22.1016ZM10.5117 22.1016C10.165 22.1016 9.88281 21.8194 9.88281 21.4727C9.88281 21.1259 10.165 20.8438 10.5117 20.8438C10.8585 20.8438 11.1406 21.1259 11.1406 21.4727C11.1406 21.8194 10.8585 22.1016 10.5117 22.1016ZM10.9609 18.1484H10.0625V16.3516H10.9609V18.1484ZM15.8125 15.4531H5.21094C4.66591 15.4531 4.22266 15.0099 4.22266 14.4648C4.22266 13.9198 4.66591 13.4766 5.21094 13.4766H8.71484C8.96297 13.4766 9.16406 13.2755 9.16406 13.0273C9.16406 12.7792 8.96297 12.5781 8.71484 12.5781H5.92969V3.97559C5.92969 2.27891 7.31016 0.898438 9.00684 0.898438H12.0166C13.7133 0.898438 15.0938 2.27891 15.0938 3.97559V12.5781H12.3086C12.0605 12.5781 11.8594 12.7792 11.8594 13.0273C11.8594 13.2755 12.0605 13.4766 12.3086 13.4766H15.8125C16.3575 13.4766 16.8008 13.9198 16.8008 14.4648C16.8008 15.0099 16.3575 15.4531 15.8125 15.4531ZM19.6758 11.0508H18.5977C18.3499 11.0508 18.1484 10.8493 18.1484 10.6016C18.1484 10.3538 18.3499 10.1523 18.5977 10.1523H19.6758C19.9236 10.1523 20.125 10.3538 20.125 10.6016C20.125 10.8493 19.9236 11.0508 19.6758 11.0508Z" fill="#626262"/>
<path d="M10.5117 12.5781C10.3936 12.5781 10.2776 12.6262 10.1941 12.7097C10.1106 12.7933 10.0625 12.9092 10.0625 13.0273C10.0625 13.1454 10.1106 13.2614 10.1941 13.345C10.2776 13.4285 10.3936 13.4766 10.5117 13.4766C10.6298 13.4766 10.7458 13.4285 10.8293 13.345C10.9128 13.2614 10.9609 13.1454 10.9609 13.0273C10.9609 12.9092 10.9128 12.7933 10.8293 12.7097C10.7458 12.6262 10.6298 12.5781 10.5117 12.5781Z" fill="#626262"/>
</svg>
