<svg width="19" height="19" viewBox="0 0 19 19" fill="none" xmlns="http://www.w3.org/2000/svg">
<path d="M18.7673 17.6506L14.1996 13.0829C15.3318 11.7024 16.0143 9.93429 16.0143 8.00714C16.0143 3.58674 12.4276 0 8.00714 0C3.58286 0 0 3.58674 0 8.00714C0 12.4276 3.58286 16.0143 8.00714 16.0143C9.93429 16.0143 11.6986 15.3357 13.079 14.2035L17.6467 18.7673C17.9569 19.0776 18.4571 19.0776 18.7673 18.7673C19.0776 18.461 19.0776 17.9569 18.7673 17.6506ZM8.00714 14.4206C4.46694 14.4206 1.5898 11.5435 1.5898 8.00714C1.5898 4.47082 4.46694 1.5898 8.00714 1.5898C11.5435 1.5898 14.4245 4.47082 14.4245 8.00714C14.4245 11.5435 11.5435 14.4206 8.00714 14.4206Z" fill="white"/>
</svg>
