<svg width="16" height="16" viewBox="0 0 16 16" fill="none" xmlns="http://www.w3.org/2000/svg">
<path d="M16 12.125C16 10.286 14.7185 8.74725 13 8.35039C12.7186 8.2855 12.4261 8.25 12.125 8.25C12.0409 8.25 11.9577 8.25363 11.875 8.25889C9.99711 8.37863 8.48349 9.83512 8.27525 11.6875C8.25912 11.8312 8.25 11.977 8.25 12.125C8.25 12.4038 8.28012 12.6754 8.33599 12.9375C8.7095 14.6874 10.2636 16 12.125 16C14.2651 16 16 14.2651 16 12.125ZM12.125 14.6875C10.7097 14.6875 9.56247 13.5402 9.56247 12.125C9.56247 10.7098 10.7097 9.5625 12.125 9.5625C13.5402 9.5625 14.6875 10.7098 14.6875 12.125C14.6875 13.5402 13.5402 14.6875 12.125 14.6875Z" fill="#038537"/>
<path d="M12.625 10.375H11.75V11.75H10.375V12.625H12.625V11.75V10.375Z" fill="#038537"/>
<path d="M2.87499 0C2.63374 0 2.4375 0.196261 2.4375 0.43749V1.43749V2.5C2.4375 2.74125 2.63374 2.93749 2.87499 2.93749H3.25C3.49125 2.93749 3.68749 2.74123 3.68749 2.5V1.43749V0.43749C3.68749 0.196261 3.49125 0 3.24997 0H2.87499Z" fill="#038537"/>
<path d="M9.74999 0C9.50873 0 9.3125 0.196261 9.3125 0.43749V1.43749V2.5C9.3125 2.74125 9.50876 2.93749 9.74999 2.93749H10.125C10.3663 2.93749 10.5625 2.74123 10.5625 2.5V1.43749V0.43749C10.5625 0.196261 10.3662 0 10.125 0H9.74999Z" fill="#038537"/>
<path d="M1 12.9375H7.1875C7.12651 12.6342 7.09412 12.3209 7.09412 12C7.09412 11.8949 7.09875 11.7909 7.10549 11.6875H1.87501C1.46076 11.6875 1.12499 11.3517 1.12499 10.9375V4.9375H11.875V7.25664C11.9578 7.25238 12.0411 7.25002 12.125 7.25002C12.424 7.25002 12.7161 7.27902 13 7.33214V2.4375C13 1.88524 12.5523 1.4375 12 1.4375H11.1875V2.50001C11.1875 3.08589 10.7109 3.56252 10.125 3.56252H9.74999C9.16411 3.56252 8.68748 3.08589 8.68748 2.50001V1.4375H4.3125V2.50001C4.3125 3.08589 3.83587 3.56252 3.24999 3.56252H2.87498C2.2891 3.56252 1.81247 3.08589 1.81247 2.50001V1.4375H1C0.447739 1.4375 0 1.88526 0 2.4375V11.9375C0 12.4898 0.447739 12.9375 1 12.9375Z" fill="#038537"/>
<path d="M3.52351 7.80484C4.07152 7.80484 4.51577 7.36059 4.51577 6.81257C4.51577 6.26456 4.07152 5.82031 3.52351 5.82031C2.9755 5.82031 2.53125 6.26456 2.53125 6.81257C2.53125 7.36059 2.9755 7.80484 3.52351 7.80484Z" fill="#038537"/>
<path d="M6.49998 7.80484C7.04799 7.80484 7.49224 7.36059 7.49224 6.81257C7.49224 6.26456 7.04799 5.82031 6.49998 5.82031C5.95197 5.82031 5.50772 6.26456 5.50772 6.81257C5.50772 7.36059 5.95197 7.80484 6.49998 7.80484Z" fill="#038537"/>
<path d="M9.47654 7.80484C10.0246 7.80484 10.4688 7.36059 10.4688 6.81257C10.4688 6.26456 10.0246 5.82031 9.47654 5.82031C8.92853 5.82031 8.48428 6.26456 8.48428 6.81257C8.48428 7.36059 8.92853 7.80484 9.47654 7.80484Z" fill="#038537"/>
<path d="M6.50005 10.8048C7.04804 10.8048 7.49228 10.3605 7.49228 9.81255C7.49228 9.26455 7.04804 8.82031 6.50005 8.82031C5.95205 8.82031 5.50781 9.26455 5.50781 9.81255C5.50781 10.3605 5.95205 10.8048 6.50005 10.8048Z" fill="#038537"/>
<path d="M3.52349 10.8048C4.07148 10.8048 4.51572 10.3605 4.51572 9.81255C4.51572 9.26455 4.07148 8.82031 3.52349 8.82031C2.97549 8.82031 2.53125 9.26455 2.53125 9.81255C2.53125 10.3605 2.97549 10.8048 3.52349 10.8048Z" fill="#038537"/>
</svg>
