<svg width="32" height="33" viewBox="0 0 32 33" fill="none" xmlns="http://www.w3.org/2000/svg">
<rect x="0.25" y="0.414062" width="31.5" height="31.7184" rx="1.75" stroke="#F05A28" stroke-width="0.5"/>
<path d="M23.0789 8.9272C22.2691 8.47742 21.3404 8.21875 20.3495 8.21875C18.6012 8.21875 17.0355 9.02201 16.0017 10.2816C14.963 9.02201 13.3988 8.21875 11.6481 8.21875C10.6596 8.21875 9.73257 8.47742 8.921 8.9272C7.17976 9.89946 6 11.7688 6 13.917C6 14.532 6.09926 15.1218 6.27904 15.6736C7.24858 20.0677 16.0017 25.6094 16.0017 25.6094C16.0017 25.6094 24.749 20.0678 25.7199 15.6736C25.8997 15.1218 26 14.5312 26 13.917C26 11.7696 24.8202 9.90084 23.0789 8.9272Z" fill="#F05A28"/>
</svg>
