<svg width="24" height="7" viewBox="0 0 24 7" fill="none" xmlns="http://www.w3.org/2000/svg">
<path d="M3 6.30078C1.35 6.30078 0 4.94157 0 3.2803C0 1.61904 1.35 0.259826 3 0.259826C4.65 0.259826 6 1.61904 6 3.2803C6 4.94157 4.65 6.30078 3 6.30078ZM21 6.30078C19.35 6.30078 18 4.94157 18 3.2803C18 1.61904 19.35 0.259826 21 0.259826C22.65 0.259826 24 1.61904 24 3.2803C24 4.94157 22.65 6.30078 21 6.30078ZM12 6.30078C10.35 6.30078 9 4.94157 9 3.2803C9 1.61904 10.35 0.259826 12 0.259826C13.65 0.259826 15 1.61904 15 3.2803C15 4.94157 13.65 6.30078 12 6.30078Z" fill="#828282"/>
</svg>
