<svg width="12" height="12" viewBox="0 0 12 12" fill="none" xmlns="http://www.w3.org/2000/svg">
<path d="M6.00006 0C2.69162 0 0 2.69157 0 5.99994C0 9.30855 2.69162 12.0002 6.00006 12.0002C9.30843 12.0002 12 9.30849 12 5.99994C12 2.69157 9.30843 0 6.00006 0ZM6.00006 11.1401C3.16589 11.1401 0.860108 8.83423 0.860108 5.99994C0.860108 3.16583 3.16589 0.860108 6.00006 0.860108C8.83417 0.860108 11.1399 3.16583 11.1399 5.99994C11.1399 8.83423 8.83417 11.1401 6.00006 11.1401Z" fill="white"/>
<path d="M9.08521 5.89953H6.26555V2.81736C6.26555 2.57986 6.07305 2.38731 5.83549 2.38731C5.59799 2.38731 5.40544 2.57986 5.40544 2.81736V6.32958C5.40544 6.56709 5.59799 6.75964 5.83549 6.75964H9.08521C9.32277 6.75964 9.51526 6.56709 9.51526 6.32958C9.51526 6.09208 9.32271 5.89953 9.08521 5.89953Z" fill="white"/>
</svg>
