<svg width="14" height="10" viewBox="0 0 14 10" fill="none" xmlns="http://www.w3.org/2000/svg">
<path d="M12.8198 1.04172C12.5997 0.887818 12.2931 0.908554 12.0963 1.10393L12.0962 1.10395L4.99965 8.15336L1.90337 5.10096C1.90335 5.10094 1.90333 5.10092 1.90331 5.10091C1.68306 4.88238 1.32561 4.8824 1.10538 5.10096C0.884904 5.31976 0.884826 5.6743 1.10543 5.89267L1.10552 5.89276L4.60234 9.33962C4.60237 9.33965 4.6024 9.33967 4.60242 9.3397L4.60243 9.33971L4.64455 9.29698M12.8198 1.04172L12.8941 1.8957L12.8519 1.853M12.8198 1.04172C12.826 1.04109 12.8302 1.04141 12.8314 1.04217L12.8348 1.045L12.8363 1.04631L12.8387 1.04865L12.8944 1.10369L12.95 1.15883L12.9502 1.15911M12.8198 1.04172C12.8293 1.04839 12.8387 1.05538 12.8479 1.06269L12.9358 1.14973C12.9433 1.15887 12.9503 1.1682 12.9571 1.17768M4.64455 9.29698C4.83941 9.48985 5.16365 9.48985 5.35851 9.29698L12.8519 1.853M4.64455 9.29698L1.14764 5.85003M4.64455 9.29698L1.14764 5.85003M12.8519 1.853L12.8942 1.89557L12.8942 1.89559C13.0918 1.70042 13.1128 1.39602 12.9571 1.17768M12.8519 1.853C13.02 1.6871 13.045 1.43285 12.9269 1.24068C12.9483 1.22068 12.9556 1.19318 12.9571 1.17768M12.9571 1.17768C12.9577 1.17151 12.9573 1.16725 12.9565 1.16611L12.9537 1.16266L12.9524 1.16123L12.9502 1.15911M12.9502 1.15911L12.95 1.15892L12.9502 1.15911ZM1.14764 5.85003C0.950786 5.65517 0.950786 5.33891 1.14764 5.14355C1.3445 4.94818 1.66425 4.94818 1.8611 5.14355L4.99981 8.23777L1.14764 5.85003ZM12.8386 1.04862L12.8384 1.04843L12.8386 1.04862Z" fill="white" stroke="white" stroke-width="0.12"/>
</svg>
